<?xml version="1.0" encoding="utf-8"?>
<!-- Generator: Adobe Illustrator 15.0.0, SVG Export Plug-In . SVG Version: 6.00 Build 0)  -->
<!DOCTYPE svg PUBLIC "-//W3C//DTD SVG 1.1//EN" "http://www.w3.org/Graphics/SVG/1.1/DTD/svg11.dtd">
<svg version="1.1" id="Layer_1" xmlns="http://www.w3.org/2000/svg" xmlns:xlink="http://www.w3.org/1999/xlink" x="0px" y="0px"
	 width="55.335px" height="54.916px" viewBox="0 -6.583 55.335 54.916" enable-background="new 0 -6.583 55.335 54.916"
	 xml:space="preserve">
<g>
	<path fill="none" stroke="#000000" stroke-miterlimit="10" d="M264.042,54.167"/>
	<path fill="none" stroke="#000000" stroke-miterlimit="10" d="M264.042,58.07"/>
	<path fill="none" stroke="#000000" stroke-miterlimit="10" d="M264.042,61.977"/>
	<path fill="none" stroke="#000000" stroke-miterlimit="10" d="M264.042,65.881"/>
	<path fill="none" stroke="#000000" stroke-miterlimit="10" d="M264.042,69.786"/>
	<path fill="none" stroke="#000000" stroke-miterlimit="10" d="M264.042,73.689"/>
	<path fill="none" stroke="#000000" stroke-miterlimit="10" d="M264.042,77.596"/>
	<path fill="none" stroke="#000000" stroke-miterlimit="10" d="M264.042,81.5"/>
</g>
<polygon opacity="0.1" enable-background="new    " points="28.841,7.477 37.101,6.042 29.782,4.067 "/>
<g>
	<g enable-background="new    ">
		<g enable-background="new    ">
			<path fill="none" stroke="#000000" stroke-miterlimit="10" d="M55.37,15.291"/>
			<path fill="none" stroke="#000000" stroke-width="0.25" stroke-miterlimit="10" d="M45.062,12.532"/>
			<path fill="none" stroke="#000000" stroke-width="0.25" stroke-miterlimit="10" d="M55.37,15.291"/>
		</g>
		<g enable-background="new    ">
			<path fill="none" stroke="#000000" stroke-width="0.25" stroke-miterlimit="10" d="M55.264,15.108"/>
		</g>
		<g enable-background="new    ">
			<path fill="none" stroke="#000000" stroke-width="0.25" stroke-miterlimit="10" d="M55.264,15.108"/>
		</g>
	</g>
</g>
<polygon opacity="0.76" fill="#C1C1C1" stroke="#CECECE" stroke-width="0.75" stroke-miterlimit="10" enable-background="new    " points="
	29.782,4.067 8.212,16.768 20.127,38.958 21.127,35.349 44.457,41.806 52.17,13.936 28.841,7.477 "/>
<line fill="none" stroke="#CECECE" stroke-width="0.75" stroke-miterlimit="10" x1="8.212" y1="16.768" x2="9.511" y2="10.99"/>
<line fill="none" stroke="#CECECE" stroke-width="0.75" stroke-miterlimit="10" x1="9.511" y1="10.99" x2="30.188" y2="-0.985"/>
<line fill="none" stroke="#CECECE" stroke-width="0.75" stroke-miterlimit="10" x1="29.782" y1="4.067" x2="30.188" y2="-0.985"/>
<line fill="none" stroke="#CECECE" stroke-width="0.75" stroke-miterlimit="10" x1="52.17" y1="13.936" x2="52.683" y2="10.248"/>
<line fill="none" stroke="#CECECE" stroke-width="0.75" stroke-miterlimit="10" x1="29.782" y1="4.067" x2="52.683" y2="10.248"/>
<path fill="#E5E5E5" d="M28.841,7.477"/>
<rect x="15.652" y="2.636" transform="matrix(-0.2568 0.9665 -0.9665 -0.2568 27.3712 -8.5854)" fill="#FFFFFF" stroke="#CECECE" stroke-width="0.25" stroke-miterlimit="10" width="2.67" height="7.191"/>
<polygon opacity="0.1" enable-background="new    " points="20.118,8.449 25.04,5.559 25.378,4.067 20.805,5.867 "/>
<polyline opacity="0.03" fill="#6B6B6B" enable-background="new    " points="2.354,34.674 12.765,27.976 0.802,35.672 "/>
<path fill="none" d="M13.443,27.611l-0.676,0.365L13.443,27.611z"/>
<path fill="none" d="M16.198,32.81l-2.755-5.2L16.198,32.81z"/>
<polyline opacity="0.03" enable-background="new    " points="13.443,27.611 16.198,32.81 20.255,40.197 21.503,35.88 
	44.698,42.432 21.4,43.388 20.118,43.474 20.268,44.201 20.805,46.905 20.805,46.908 19.364,46.098 1.625,36.135 0.802,35.672 "/>
</svg>
