<?xml version="1.0" encoding="utf-8"?>
<!-- Generator: Adobe Illustrator 15.0.0, SVG Export Plug-In . SVG Version: 6.00 Build 0)  -->
<!DOCTYPE svg PUBLIC "-//W3C//DTD SVG 1.1//EN" "http://www.w3.org/Graphics/SVG/1.1/DTD/svg11.dtd">
<svg version="1.1" id="Layer_1" xmlns="http://www.w3.org/2000/svg" xmlns:xlink="http://www.w3.org/1999/xlink" x="0px" y="0px"
	 width="55.335px" height="54.916px" viewBox="0 0 55.335 54.916" enable-background="new 0 0 55.335 54.916" xml:space="preserve">
<g>
	<path fill="none" stroke="#000000" stroke-miterlimit="10" d="M264.042,54.167"/>
	<path fill="none" stroke="#000000" stroke-miterlimit="10" d="M264.042,58.069"/>
	<path fill="none" stroke="#000000" stroke-miterlimit="10" d="M264.042,61.978"/>
	<path fill="none" stroke="#000000" stroke-miterlimit="10" d="M264.042,65.881"/>
	<path fill="none" stroke="#000000" stroke-miterlimit="10" d="M264.042,69.786"/>
	<path fill="none" stroke="#000000" stroke-miterlimit="10" d="M264.042,73.688"/>
	<path fill="none" stroke="#000000" stroke-miterlimit="10" d="M264.042,77.597"/>
	<path fill="none" stroke="#000000" stroke-miterlimit="10" d="M264.042,81.5"/>
</g>
<polygon opacity="0.1" enable-background="new    " points="28.841,14.499 37.101,13.065 29.783,11.09 "/>
<g>
	<g enable-background="new    ">
		<g enable-background="new    ">
			<path fill="none" stroke="#000000" stroke-miterlimit="10" d="M55.371,22.314"/>
			<path fill="none" stroke="#000000" stroke-width="0.25" stroke-miterlimit="10" d="M45.062,19.554"/>
			<path fill="none" stroke="#000000" stroke-width="0.25" stroke-miterlimit="10" d="M55.371,22.314"/>
		</g>
		<g enable-background="new    ">
			<path fill="none" stroke="#000000" stroke-width="0.25" stroke-miterlimit="10" d="M55.264,22.131"/>
		</g>
		<g enable-background="new    ">
			<path fill="none" stroke="#000000" stroke-width="0.25" stroke-miterlimit="10" d="M55.264,22.131"/>
		</g>
	</g>
</g>
<polygon opacity="0.76" fill="#C10000" stroke="#CE4147" stroke-width="0.75" stroke-miterlimit="10" enable-background="new    " points="
	29.783,11.09 8.212,23.791 20.127,45.979 21.127,42.372 44.457,48.829 52.169,20.958 28.841,14.499 "/>
<line fill="none" stroke="#CE4147" stroke-width="0.75" stroke-miterlimit="10" x1="8.212" y1="23.791" x2="9.511" y2="18.012"/>
<line fill="none" stroke="#CE4147" stroke-width="0.75" stroke-miterlimit="10" x1="9.511" y1="18.012" x2="30.188" y2="6.038"/>
<line fill="none" stroke="#CE4147" stroke-width="0.75" stroke-miterlimit="10" x1="29.783" y1="11.09" x2="30.188" y2="6.038"/>
<line fill="none" stroke="#CE4147" stroke-width="0.75" stroke-miterlimit="10" x1="52.169" y1="20.958" x2="52.683" y2="17.27"/>
<line fill="none" stroke="#CE4147" stroke-width="0.75" stroke-miterlimit="10" x1="29.783" y1="11.09" x2="52.683" y2="17.27"/>
<path fill="#D6E3E5" d="M28.841,14.499"/>
<rect x="15.651" y="9.659" transform="matrix(0.2568 -0.9665 0.9665 0.2568 -0.1856 26.2679)" fill="#FFFFFF" stroke="#CE4147" stroke-width="0.25" stroke-miterlimit="10" width="2.67" height="7.191"/>
<polygon opacity="0.1" enable-background="new    " points="20.118,15.471 25.04,12.581 25.378,11.09 20.805,12.889 "/>
<polyline opacity="0.03" fill="#6B6666" enable-background="new    " points="2.354,41.696 12.765,34.999 0.802,42.694 "/>
<path fill="none" d="M13.443,34.632l-0.676,0.365L13.443,34.632z"/>
<path fill="none" d="M16.198,39.833l-2.755-5.201L16.198,39.833z"/>
<polyline opacity="0.03" enable-background="new    " points="13.443,34.632 16.198,39.833 20.255,47.218 21.503,42.901 
	44.699,49.454 21.4,50.409 20.118,50.497 20.268,51.222 20.805,53.927 20.805,53.929 19.364,53.12 1.625,43.157 0.802,42.694 "/>
</svg>
