<?xml version="1.0" encoding="utf-8"?>
<!-- Generator: Adobe Illustrator 15.0.0, SVG Export Plug-In . SVG Version: 6.00 Build 0)  -->
<!DOCTYPE svg PUBLIC "-//W3C//DTD SVG 1.1//EN" "http://www.w3.org/Graphics/SVG/1.1/DTD/svg11.dtd">
<svg version="1.1" id="Layer_1" xmlns="http://www.w3.org/2000/svg" xmlns:xlink="http://www.w3.org/1999/xlink" x="0px" y="0px"
	 width="47.671px" height="48.333px" viewBox="17.745 12.583 47.671 48.333" enable-background="new 17.745 12.583 47.671 48.333"
	 xml:space="preserve">
<g>
	<path fill="none" stroke="#000000" stroke-miterlimit="10" d="M264.043,54.167"/>
	<path fill="none" stroke="#000000" stroke-miterlimit="10" d="M264.043,58.07"/>
	<path fill="none" stroke="#000000" stroke-miterlimit="10" d="M264.043,61.977"/>
	<path fill="none" stroke="#000000" stroke-miterlimit="10" d="M264.043,65.881"/>
	<path fill="none" stroke="#000000" stroke-miterlimit="10" d="M264.043,69.786"/>
	<path fill="none" stroke="#000000" stroke-miterlimit="10" d="M264.043,73.689"/>
	<path fill="none" stroke="#000000" stroke-miterlimit="10" d="M264.043,77.596"/>
	<path fill="none" stroke="#000000" stroke-miterlimit="10" d="M264.043,81.5"/>
</g>
<polygon opacity="0.1" enable-background="new    " points="39.15,28.647 43.388,27.911 39.633,26.897 "/>
<g>
	<g enable-background="new    ">
		<g enable-background="new    ">
			<path fill="none" stroke="#000000" stroke-miterlimit="10" d="M52.763,32.656"/>
			<path fill="none" stroke="#000000" stroke-width="0.25" stroke-miterlimit="10" d="M47.473,31.24"/>
			<path fill="none" stroke="#000000" stroke-width="0.25" stroke-miterlimit="10" d="M52.763,32.656"/>
		</g>
		<g enable-background="new    ">
			<path fill="none" stroke="#000000" stroke-width="0.25" stroke-miterlimit="10" d="M52.709,32.563"/>
		</g>
		<g enable-background="new    ">
			<path fill="none" stroke="#000000" stroke-width="0.25" stroke-miterlimit="10" d="M52.709,32.563"/>
		</g>
	</g>
</g>
<polygon opacity="0.76" fill="#C1C1C1" stroke="#CECECE" stroke-width="0.75" stroke-miterlimit="10" enable-background="new    " points="
	39.633,26.897 28.564,33.415 34.678,44.802 35.191,42.949 47.163,46.263 51.121,31.961 39.15,28.647 "/>
<line fill="none" stroke="#CECECE" stroke-width="0.75" stroke-miterlimit="10" x1="28.564" y1="33.415" x2="29.23" y2="30.45"/>
<line fill="none" stroke="#CECECE" stroke-width="0.75" stroke-miterlimit="10" x1="29.23" y1="30.45" x2="39.842" y2="24.305"/>
<line fill="none" stroke="#CECECE" stroke-width="0.75" stroke-miterlimit="10" x1="39.633" y1="26.897" x2="39.842" y2="24.305"/>
<line fill="none" stroke="#CECECE" stroke-width="0.75" stroke-miterlimit="10" x1="51.121" y1="31.961" x2="51.385" y2="30.069"/>
<line fill="none" stroke="#CECECE" stroke-width="0.75" stroke-miterlimit="10" x1="39.633" y1="26.897" x2="51.385" y2="30.069"/>
<path fill="#E5E5E5" d="M39.15,28.647"/>
<rect x="32.381" y="26.165" transform="matrix(0.2564 -0.9666 0.9666 0.2564 -2.4859 52.7891)" fill="#FFFFFF" stroke="#CECECE" stroke-width="0.25" stroke-miterlimit="10" width="1.371" height="3.69"/>
<polygon opacity="0.1" enable-background="new    " points="34.674,29.146 37.199,27.662 37.373,26.897 35.026,27.821 "/>
<circle fill="none" stroke="#CECECE" stroke-width="2" stroke-miterlimit="10" cx="41.465" cy="36.69" r="21.779"/>
<polyline opacity="0.03" fill="#6B6B6B" enable-background="new    " points="25.557,42.604 30.9,39.166 24.761,43.115 "/>
<path fill="none" d="M31.248,38.979l-0.347,0.188L31.248,38.979z"/>
<path fill="none" d="M32.662,41.647l-1.414-2.669L32.662,41.647z"/>
<polyline opacity="0.03" enable-background="new    " points="31.248,38.979 32.662,41.647 34.744,45.438 35.384,43.223 
	47.287,46.585 35.331,47.074 34.674,47.119 34.749,47.492 35.026,48.879 35.026,48.881 34.286,48.465 25.183,43.353 24.761,43.115 
	"/>
</svg>
