<?xml version="1.0" encoding="utf-8"?>
<!-- Generator: Adobe Illustrator 15.0.0, SVG Export Plug-In . SVG Version: 6.00 Build 0)  -->
<!DOCTYPE svg PUBLIC "-//W3C//DTD SVG 1.1//EN" "http://www.w3.org/Graphics/SVG/1.1/DTD/svg11.dtd">
<svg version="1.1" id="Layer_1" xmlns="http://www.w3.org/2000/svg" xmlns:xlink="http://www.w3.org/1999/xlink" x="0px" y="0px"
	 width="53.833px" height="43.5px" viewBox="0 0 53.833 43.5" enable-background="new 0 0 53.833 43.5" xml:space="preserve">
<polyline fill="#FFFFFF" stroke="#000000" stroke-width="0.25" stroke-miterlimit="10" points="27.733,0.931 51.647,0.931 
	51.647,39.6 22.257,39.6 22.257,39.109 "/>
<line fill="none" stroke="#000000" stroke-width="0.25" stroke-miterlimit="10" x1="22.257" y1="7.313" x2="22.257" y2="27.861"/>
<g>
	<path fill="none" stroke="#000000" stroke-miterlimit="10" d="M264.043,54.167"/>
	<path fill="none" stroke="#000000" stroke-miterlimit="10" d="M264.043,58.07"/>
	<path fill="none" stroke="#000000" stroke-miterlimit="10" d="M264.043,61.977"/>
	<path fill="none" stroke="#000000" stroke-miterlimit="10" d="M264.043,65.881"/>
	<path fill="none" stroke="#000000" stroke-miterlimit="10" d="M264.043,69.786"/>
	<path fill="none" stroke="#000000" stroke-miterlimit="10" d="M264.043,73.689"/>
	<path fill="none" stroke="#000000" stroke-miterlimit="10" d="M264.043,77.596"/>
	<path fill="none" stroke="#000000" stroke-miterlimit="10" d="M264.043,81.5"/>
</g>
<g>
	<g enable-background="new    ">
		<g>
			<path fill="#FFFFFF" stroke="#000000" stroke-width="0.25" stroke-miterlimit="10" d="M19.897,32.201"/>
		</g>
		<g>
			<path fill="#FFFFFF" stroke="#000000" stroke-width="0.25" stroke-miterlimit="10" d="M19.974,32.129"/>
			<path fill="none" stroke="#000000" stroke-width="0.25" stroke-miterlimit="10" d="M30.434,34.072"/>
			<path fill="#FFFFFF" stroke="#000000" stroke-width="0.25" stroke-miterlimit="10" d="M19.974,32.129"/>
		</g>
		<g>
			<path fill="none" stroke="#000000" stroke-width="0.25" stroke-miterlimit="10" d="M2.214,34.389"/>
		</g>
	</g>
</g>
<g>
	<g enable-background="new    ">
		<g>
			<g>
				<path fill="#FFFFFF" stroke="#000000" stroke-width="0.25" stroke-miterlimit="10" d="M33.389,30.617l-20.99,7.492l-0.023-0.006
					l-10.841-2.75l20.991-7.492l0.021,0.008L33.389,30.617"/>
			</g>
			<g>
				<path fill="none" stroke="#000000" stroke-width="0.25" stroke-miterlimit="10" d="M4.32,35.223"/>
				<polygon fill="#FFFFFF" stroke="#000000" stroke-width="0.25" stroke-miterlimit="10" points="12.362,37.336 12.341,37.33 
					19.306,34.859 				"/>
			</g>
			<g>
				<path fill="#FFFFFF" stroke="#000000" stroke-width="0.25" stroke-miterlimit="10" d="M22.853,33.516"/>
			</g>
			<g>
				<path fill="#FFFFFF" stroke="#000000" stroke-width="0.25" stroke-miterlimit="10" d="M22.826,33.445"/>
				<polyline fill="#FFFFFF" stroke="#000000" stroke-width="0.25" stroke-miterlimit="10" points="14.843,31.467 22.567,28.709 
					30.608,30.748 22.853,33.516 				"/>
			</g>
		</g>
	</g>
</g>
<g>
	<path fill="#FFFFFF" stroke="#000000" stroke-width="0.25" stroke-miterlimit="10" d="M23.898,34.424l9.261-3.305 M12.38,38.535
		l8.063-2.879 M1.768,35.832l5.303,1.344l5.303,1.346L1.768,35.832z"/>
	<path fill="#FFFFFF" stroke="#000000" stroke-width="0.25" stroke-miterlimit="10" d="M23.91,34.994l9.249-3.299 M12.38,39.109
		l8.073-2.879 M1.768,36.408l5.303,1.348l5.303,1.344L1.768,36.408z"/>
	<path fill="#FFFFFF" stroke="#000000" stroke-width="0.25" stroke-miterlimit="10" d="M23.896,35.578l9.265-3.307 M12.38,39.688
		l8.064-2.877 M1.768,36.986l5.303,1.344l5.303,1.344L1.768,36.986z"/>
	<path fill="#FFFFFF" stroke="#000000" stroke-width="0.25" stroke-miterlimit="10" d="M23.882,36.158l9.275-3.309 M12.38,40.264
		l8.09-2.889 M1.768,37.561l5.303,1.349l5.303,1.346L1.768,37.561z"/>
	<path fill="#FFFFFF" stroke="#000000" stroke-width="0.25" stroke-miterlimit="10" d="M23.859,36.744l9.302-3.318 M12.38,40.84
		l8.073-2.881 M1.768,38.139l5.303,1.344l5.303,1.347L1.768,38.139z"/>
	<path fill="#FFFFFF" stroke="#000000" stroke-width="0.25" stroke-miterlimit="10" d="M23.884,37.313l9.275-3.311 M12.38,41.416
		l8.074-2.883 M1.768,38.713l5.303,1.348l5.303,1.344L1.768,38.713z"/>
	<path fill="#FFFFFF" stroke="#000000" stroke-width="0.25" stroke-miterlimit="10" d="M23.884,37.887l9.273-3.309 M12.38,41.992
		l8.076-2.881 M1.768,39.289l5.303,1.346l5.303,1.346L1.768,39.289z"/>
	<path fill="#FFFFFF" stroke="#000000" stroke-width="0.25" stroke-miterlimit="10" d="M23.897,38.459l9.262-3.305 M20.503,39.67
		l3.395-1.211 M12.38,42.568l8.123-2.896 M1.768,39.867l5.303,1.346l5.303,1.346L1.768,39.867z"/>
</g>
<g>
	<line fill="none" stroke="#000000" stroke-width="0.25" stroke-miterlimit="10" x1="20.435" y1="35.227" x2="9.938" y2="32.496"/>
</g>
<g>
	<line fill="none" stroke="#000000" stroke-width="0.25" stroke-miterlimit="10" x1="24.04" y1="33.861" x2="13.667" y2="31.133"/>
</g>
<g>
	<line fill="none" stroke="#000000" stroke-width="0.25" stroke-miterlimit="10" x1="20.38" y1="39.688" x2="20.38" y2="35.156"/>
</g>
<g>
	<line fill="none" stroke="#000000" stroke-width="0.25" stroke-miterlimit="10" x1="23.985" y1="38.402" x2="23.985" y2="33.789"/>
</g>
<path fill="none" stroke="#000000" stroke-width="0.25" stroke-miterlimit="10" d="M9.605,36.309"/>
<path fill="none" stroke="#000000" stroke-width="0.25" stroke-miterlimit="10" d="M9.605,36.309"/>
<g>
	<path fill="none" stroke="#000000" stroke-width="0.25" stroke-miterlimit="10" d="M9.679,36.236"/>
</g>
<path fill="none" stroke="#000000" stroke-width="0.25" stroke-miterlimit="10" d="M9.679,36.236"/>
<line fill="none" stroke="#000000" stroke-width="0.25" stroke-miterlimit="10" x1="4.32" y1="35.223" x2="12.341" y2="37.33"/>
<polygon fill="#FFFFFF" stroke="#000000" stroke-width="0.25" stroke-miterlimit="10" points="4.343,35.242 4.32,35.236 
	11.286,32.764 "/>
<path fill="#FFFFFF" stroke="#000000" stroke-width="0.25" stroke-miterlimit="10" d="M21.11,28.236"/>
<path fill="#FFFFFF" stroke="#000000" stroke-width="0.25" stroke-miterlimit="10" d="M21.11,39.6"/>
<line fill="none" stroke="#000000" stroke-width="0.25" stroke-miterlimit="10" x1="39.032" y1="36.863" x2="49.051" y2="36.863"/>
<polygon fill="#FFFFFF" stroke="#000000" stroke-width="0.25" stroke-miterlimit="10" points="45.565,4.739 45.565,13.439 
	47.358,9.088 49.149,13.439 49.149,4.739 "/>
<g>
	<line fill="none" stroke="#000000" stroke-width="0.25" stroke-miterlimit="10" x1="29.245" y1="9.088" x2="45.565" y2="9.088"/>
	<line fill="none" stroke="#000000" stroke-width="0.25" stroke-miterlimit="10" x1="26.173" y1="11.286" x2="45.565" y2="11.286"/>
	<line fill="none" stroke="#000000" stroke-width="0.25" stroke-miterlimit="10" x1="26.173" y1="13.483" x2="49.149" y2="13.483"/>
	<line fill="none" stroke="#000000" stroke-width="0.25" stroke-miterlimit="10" x1="26.173" y1="15.68" x2="49.149" y2="15.68"/>
	<line fill="none" stroke="#000000" stroke-width="0.25" stroke-miterlimit="10" x1="26.173" y1="17.875" x2="49.149" y2="17.875"/>
	<line fill="none" stroke="#000000" stroke-width="0.25" stroke-miterlimit="10" x1="29.245" y1="20.075" x2="49.149" y2="20.075"/>
	<line fill="none" stroke="#000000" stroke-width="0.25" stroke-miterlimit="10" x1="26.173" y1="22.271" x2="49.149" y2="22.271"/>
	<line fill="none" stroke="#000000" stroke-width="0.25" stroke-miterlimit="10" x1="26.173" y1="24.469" x2="49.149" y2="24.469"/>
	<line fill="none" stroke="#000000" stroke-width="0.25" stroke-miterlimit="10" x1="26.173" y1="26.664" x2="49.149" y2="26.664"/>
	<line fill="none" stroke="#000000" stroke-width="0.25" stroke-miterlimit="10" x1="26.468" y1="28.863" x2="49.149" y2="28.863"/>
	<line fill="none" stroke="#000000" stroke-width="0.25" stroke-miterlimit="10" x1="33.157" y1="31.119" x2="49.149" y2="31.061"/>
	<line fill="none" stroke="#000000" stroke-width="0.25" stroke-miterlimit="10" x1="33.159" y1="33.258" x2="49.149" y2="33.258"/>
</g>
<line fill="none" stroke="#000000" stroke-width="0.25" stroke-miterlimit="10" x1="46.452" y1="11.286" x2="48.26" y2="11.286"/>
<polygon fill="#FFFFFF" stroke="#000000" stroke-width="0.25" stroke-miterlimit="10" points="22.257,7.313 28.03,7.313 
	28.03,0.931 "/>
<path fill="#FFFFFF" stroke="#000000" stroke-width="0.25" stroke-miterlimit="10" d="M22.257,7.077"/>
<polygon fill="#FFFFFF" points="23.667,34.406 20.635,35.402 20.635,39.275 23.667,38.285 "/>
<polygon fill="#FFFFFF" points="28.833,7.688 25.854,7.688 23.985,7.688 22.725,7.688 22.725,27.438 25.854,28.236 25.854,10.75 
	28.833,10.75 "/>
</svg>
