<?xml version="1.0" encoding="utf-8"?>
<!-- Generator: Adobe Illustrator 15.0.0, SVG Export Plug-In . SVG Version: 6.00 Build 0)  -->
<!DOCTYPE svg PUBLIC "-//W3C//DTD SVG 1.1//EN" "http://www.w3.org/Graphics/SVG/1.1/DTD/svg11.dtd">
<svg version="1.1" id="Layer_1" xmlns="http://www.w3.org/2000/svg" xmlns:xlink="http://www.w3.org/1999/xlink" x="0px" y="0px"
	 width="55.5px" height="55px" viewBox="0 -8 55.5 55" enable-background="new 0 -8 55.5 55" xml:space="preserve">
<polyline fill="#00C39E" points="28.84,-0.617 54.25,-0.617 54.25,40.987 47.009,40.987 22.629,40.987 22.629,40.459 "/>
<line fill="none" x1="22.629" y1="6.25" x2="22.629" y2="28.357"/>
<g>
	<path fill="none" stroke="#000000" stroke-miterlimit="10" d="M264.043,54.167"/>
	<path fill="none" stroke="#000000" stroke-miterlimit="10" d="M264.043,58.07"/>
	<path fill="none" stroke="#000000" stroke-miterlimit="10" d="M264.043,61.977"/>
	<path fill="none" stroke="#000000" stroke-miterlimit="10" d="M264.043,65.881"/>
	<path fill="none" stroke="#000000" stroke-miterlimit="10" d="M264.043,69.786"/>
	<path fill="none" stroke="#000000" stroke-miterlimit="10" d="M264.043,73.689"/>
	<path fill="none" stroke="#000000" stroke-miterlimit="10" d="M264.043,77.596"/>
	<path fill="none" stroke="#000000" stroke-miterlimit="10" d="M264.043,81.5"/>
</g>
<g>
	<g enable-background="new    ">
		<g>
			<path fill="#FFFFFF" stroke="#000000" stroke-width="0.25" stroke-miterlimit="10" d="M20.088,33.024"/>
		</g>
		<g>
			<path fill="#FFFFFF" stroke="#000000" stroke-width="0.25" stroke-miterlimit="10" d="M20.171,32.947"/>
			<path fill="none" stroke="#000000" stroke-width="0.25" stroke-miterlimit="10" d="M31.427,35.039"/>
			<path fill="#FFFFFF" stroke="#000000" stroke-width="0.25" stroke-miterlimit="10" d="M20.171,32.947"/>
		</g>
		<g>
			<path fill="none" stroke="#000000" stroke-width="0.25" stroke-miterlimit="10" d="M1.064,35.38"/>
		</g>
	</g>
</g>
<g>
	<g enable-background="new    ">
		<g>
			<g>
				<polyline fill="#00C39E" points="22.939,28.366 34.606,31.321 12.023,39.382 11.998,39.375 0.335,36.415 0.717,36.28 
					22.918,28.357 22.939,28.366 34.606,31.321 22.939,28.366 				"/>
			</g>
			<g>
				<path fill="none" stroke="#000000" stroke-width="0.25" stroke-miterlimit="10" d="M3.329,36.277"/>
				<polygon fill="#007F67" stroke="#007F67" stroke-width="0.5" stroke-miterlimit="10" points="11.982,38.551 11.959,38.545 
					19.453,35.886 				"/>
			</g>
			<g>
				<path fill="#FFFFFF" stroke="#000000" stroke-width="0.25" stroke-miterlimit="10" d="M23.271,34.442"/>
			</g>
			<g>
				<path fill="#FFFFFF" stroke="#000000" stroke-width="0.25" stroke-miterlimit="10" d="M23.242,34.366"/>
				<polyline fill="#00C39E" stroke="#007F67" stroke-width="0.5" stroke-miterlimit="10" points="14.65,32.235 22.962,29.269 
					31.613,31.463 23.271,34.442 				"/>
			</g>
		</g>
	</g>
</g>
<g>
	<path fill="#007F67" stroke="#007F67" stroke-width="0.5" stroke-miterlimit="10" d="M24.393,35.418l9.965-3.555 M12.001,39.841
		l8.675-3.096 M0.584,36.932l5.704,1.445l5.706,1.446L0.584,36.932z"/>
	<path fill="#007F67" stroke="#007F67" stroke-width="0.5" stroke-miterlimit="10" d="M24.407,36.03l9.95-3.548 M12.001,40.459
		l8.685-3.099 M0.584,37.551L6.289,39l5.706,1.447L0.584,37.551z"/>
	<path fill="#007F67" stroke="#007F67" stroke-width="0.5" stroke-miterlimit="10" d="M24.393,36.659l9.968-3.559 M12.001,41.081
		l8.676-3.096 M0.584,38.176l5.704,1.444l5.706,1.445L0.584,38.176z"/>
	<path fill="#007F67" stroke="#007F67" stroke-width="0.5" stroke-miterlimit="10" d="M24.376,37.283l9.979-3.56 M12.001,41.698
		l8.704-3.106 M0.584,38.793l5.704,1.454l5.706,1.445L0.584,38.793z"/>
	<path fill="#007F67" stroke="#007F67" stroke-width="0.5" stroke-miterlimit="10" d="M24.352,37.915l10.009-3.571 M12.001,42.323
		l8.685-3.103 M0.584,39.414l5.704,1.445l5.706,1.45L0.584,39.414z"/>
	<path fill="#007F67" stroke="#007F67" stroke-width="0.5" stroke-miterlimit="10" d="M24.38,38.525l9.978-3.56 M12.001,42.941
		l8.687-3.103 M0.584,40.031l5.704,1.449l5.706,1.445L0.584,40.031z"/>
	<path fill="#007F67" stroke="#007F67" stroke-width="0.5" stroke-miterlimit="10" d="M24.38,39.146l9.976-3.56 M12.001,43.562
		l8.688-3.099 M0.584,40.653l5.704,1.444l5.706,1.449L0.584,40.653z"/>
	<path fill="#007F67" stroke="#007F67" stroke-width="0.5" stroke-miterlimit="10" d="M24.393,39.761l9.965-3.554 M20.743,41.06
		l3.65-1.299 M12.001,44.181l8.741-3.118 M0.584,41.274l5.704,1.447l5.706,1.446L0.584,41.274z"/>
</g>
<g>
	<line fill="none" stroke="#000000" stroke-width="0.25" stroke-miterlimit="10" x1="20.668" y1="36.28" x2="9.374" y2="33.344"/>
</g>
<g>
	<polyline fill="#FFFFFF" stroke="#D6E3E5" stroke-width="0.25" stroke-miterlimit="10" points="24.548,34.812 24.148,34.707 
		14.411,32.145 13.386,31.876 12.72,32.122 9.374,33.344 13.301,34.366 20.609,36.317 20.609,41.416 24.486,40.006 24.486,39.699 
		24.548,35.039 	"/>
</g>
<g>
	<path fill="none" stroke="#000000" stroke-width="0.25" stroke-miterlimit="10" d="M20.609,36.207"/>
	<path fill="none" stroke="#000000" stroke-width="0.25" stroke-miterlimit="10" d="M20.609,41.081"/>
</g>
<g>
	<path fill="none" stroke="#000000" stroke-width="0.25" stroke-miterlimit="10" d="M24.486,34.733"/>
	<path fill="none" stroke="#000000" stroke-width="0.25" stroke-miterlimit="10" d="M24.486,39.699"/>
</g>
<path fill="none" stroke="#000000" stroke-width="0.25" stroke-miterlimit="10" d="M9.018,37.444"/>
<path fill="none" stroke="#000000" stroke-width="0.25" stroke-miterlimit="10" d="M9.018,37.444"/>
<g>
	<path fill="none" stroke="#000000" stroke-width="0.25" stroke-miterlimit="10" d="M9.095,37.367"/>
</g>
<path fill="none" stroke="#000000" stroke-width="0.25" stroke-miterlimit="10" d="M9.095,37.367"/>
<line fill="none" stroke="#007F67" stroke-width="0.5" stroke-miterlimit="10" x1="3.329" y1="36.277" x2="11.959" y2="38.545"/>
<polygon fill="#007F67" stroke="#007F67" stroke-width="0.5" stroke-miterlimit="10" points="3.354,36.298 3.329,36.291 
	10.563,33.724 "/>
<path fill="#FFFFFF" stroke="#000000" stroke-width="0.25" stroke-miterlimit="10" d="M21.394,28.763"/>
<path fill="#FFFFFF" stroke="#000000" stroke-width="0.25" stroke-miterlimit="10" d="M21.394,40.987"/>
<line fill="none" stroke="#009D7E" stroke-width="0.5" stroke-miterlimit="10" x1="40.674" y1="38.041" x2="51.455" y2="38.041"/>
<g>
	<line fill="none" stroke="#009D7E" stroke-width="0.5" stroke-miterlimit="10" x1="26.841" y1="12.887" x2="51.562" y2="12.887"/>
	<line fill="none" stroke="#009D7E" stroke-width="0.5" stroke-miterlimit="10" x1="30.146" y1="8.158" x2="47.703" y2="8.158"/>
	<line fill="none" stroke="#009D7E" stroke-width="0.5" stroke-miterlimit="10" x1="26.841" y1="10.524" x2="47.703" y2="10.524"/>
	<line fill="none" stroke="#009D7E" stroke-width="0.5" stroke-miterlimit="10" x1="26.841" y1="15.253" x2="51.562" y2="15.253"/>
	<line fill="none" stroke="#009D7E" stroke-width="0.5" stroke-miterlimit="10" x1="26.841" y1="17.613" x2="51.562" y2="17.613"/>
	<line fill="none" stroke="#009D7E" stroke-width="0.5" stroke-miterlimit="10" x1="30.146" y1="19.979" x2="51.562" y2="19.979"/>
	<line fill="none" stroke="#009D7E" stroke-width="0.5" stroke-miterlimit="10" x1="26.841" y1="22.345" x2="51.562" y2="22.345"/>
	<line fill="none" stroke="#009D7E" stroke-width="0.5" stroke-miterlimit="10" x1="26.841" y1="24.709" x2="51.562" y2="24.709"/>
	<line fill="none" stroke="#009D7E" stroke-width="0.5" stroke-miterlimit="10" x1="26.841" y1="27.067" x2="51.562" y2="27.067"/>
	<line fill="none" stroke="#009D7E" stroke-width="0.5" stroke-miterlimit="10" x1="27.157" y1="29.436" x2="51.562" y2="29.436"/>
	<line fill="none" stroke="#009D7E" stroke-width="0.5" stroke-miterlimit="10" x1="34.355" y1="31.863" x2="51.562" y2="31.8"/>
	<line fill="none" stroke="#009D7E" stroke-width="0.5" stroke-miterlimit="10" x1="34.357" y1="34.163" x2="51.562" y2="34.163"/>
</g>
<line fill="none" stroke="#009D7E" stroke-width="0.5" stroke-miterlimit="10" x1="48.661" y1="10.524" x2="50.604" y2="10.524"/>
<polygon fill="#FFFFFF" stroke="#FFFFFF" stroke-width="0.5" stroke-miterlimit="10" points="22.629,6.25 28.84,6.25 28.84,-0.617 
	"/>
<path fill="#FFFFFF" stroke="#000000" stroke-width="0.25" stroke-miterlimit="10" d="M22.629,5.996"/>
<polygon fill="#FFFFFF" points="24.145,35.397 20.885,36.471 20.885,40.639 24.145,39.574 "/>
<path fill="#00C39E" stroke="#FFFFFF" stroke-miterlimit="10" d="M27.955,6.63"/>
<polyline fill="#00C39E" points="27.791,6.519 22.765,6.519 22.765,28.357 22.939,28.366 24.979,28.883 "/>
<polygon fill="#007F67" stroke="#007F67" stroke-width="0.5" stroke-miterlimit="10" points="47.703,3.479 47.703,12.841 
	49.635,8.158 51.562,12.841 51.562,3.479 "/>
<polygon opacity="0.42" fill="#729B93" enable-background="new    " points="28.979,6.519 22.765,6.527 22.777,13.393 "/>
<line fill="none" x1="22.765" y1="28.357" x2="34.355" y2="31.565"/>
<path fill="#729B93" d="M20.609,41.416"/>
<polyline opacity="0.31" fill="#D6E3E5" enable-background="new    " points="20.609,41.416 24.486,35.384 24.486,40.006 "/>
<path fill="#00C39E" d="M49.965,40.987"/>
<polygon opacity="0.51" fill="#00C39E" enable-background="new    " points="28.516,0.08 28.551,5.996 23.324,6.045 "/>
</svg>
